# xmcd
#
# Track frame offsets:
# 150
# 16885
# 33575
# 49720
# 68663
# 87496
# 104732
# 121155
# 138304
# 153394
# 169547
# 184790
#
# Disc length: 2684 seconds
#
# Revision: 1
# Processed by: cddbd v1.5.1PL0 Copyright (c) Steve Scherf et al.
# Submitted via: Easy CD Ripper 1.45
#
DISCID=9a0a7a0c
DTITLE=Modern Talking - Universe - The 12th Album
DYEAR=2003
DGENRE=Dance
TTITLE0=Modern Talking - TV Makes The Superstar
TTITLE1=Modern Talking - I´m No Rockefeller
TTITLE2=Modern Talking - Mystery
TTITLE3=Modern Talking - Everybody Needs Somebody
TTITLE4=Modern Talking - Heart Of An Angel 
TTITLE5=Modern Talking - Who Will Ne There 
TTITLE6=Modern Talking - Knocking On My Door 
TTITLE7=Modern Talking - Should I, Would I, Could I 
TTITLE8=Modern Talking - Blackbird 
TTITLE9=Modern Talking - Life Is Too Short 
TTITLE10=Modern Talking - Nothing But The Truth 
TTITLE11=Modern Talking - Superstar 
EXTD=
EXTT0=
EXTT1=
EXTT2=
EXTT3=
EXTT4=
EXTT5=
EXTT6=
EXTT7=
EXTT8=
EXTT9=
EXTT10=
EXTT11=
PLAYORDER=
